<?xml version="1.0" encoding="utf-8"?>
<!-- Generator: Adobe Illustrator 22.0.1, SVG Export Plug-In . SVG Version: 6.00 Build 0)  -->
<svg version="1.1" id="Lager_1" xmlns="http://www.w3.org/2000/svg" xmlns:xlink="http://www.w3.org/1999/xlink" x="0px" y="0px"
	 viewBox="0 0 1000 1000" style="enable-background:new 0 0 1000 1000;" xml:space="preserve">
<style type="text/css">
	.st0{fill:none;stroke:#000000;stroke-width:68;stroke-miterlimit:10;}
	.st1{enable-background:new    ;}
</style>
<g>
	<path d="M382.1,291.1v74.7H264.7v356.7h-87.6V365.8H59.8v-74.7L382.1,291.1L382.1,291.1z"/>
	<path d="M654.4,291.1v233.6H696v68.5h-41.6v129.3h-82V593.2H404.5V532c8.2-16.5,18.5-35.1,30.9-55.9s26.1-42.1,41.3-64
		c15.2-21.9,31.2-43.3,48-64.3c16.8-21,33.7-39.9,50.5-56.7L654.4,291.1L654.4,291.1z M572.4,393.3c-14.6,19.1-30.1,39.9-46.6,62.3
		c-16.5,22.5-30.3,45.5-41.6,69.1h88.2V393.3z"/>
</g>
<path class="st0" d="M740.4,733.7C890.7,657.2,950.5,473.3,874,323S613.7,112.9,463.4,189.4"/>
<rect x="591" y="204.6" width="20.5" height="51.3"/>
<rect x="655.1" y="237.9" transform="matrix(0.3995 -0.9167 0.9167 0.3995 181.3445 773.0638)" width="51.3" height="20.5"/>
<rect x="716.7" y="273.8" transform="matrix(0.6046 -0.7965 0.7965 0.6046 67.265 703.617)" width="51.3" height="20.5"/>
<rect x="762.7" y="327.7" transform="matrix(0.8446 -0.5354 0.5354 0.8446 -58.4151 474.6146)" width="51.3" height="20.5"/>
<rect x="791" y="384.1" transform="matrix(0.9228 -0.3853 0.3853 0.9228 -88.882 345.1046)" width="51.3" height="20.5"/>
<rect x="806.4" y="443" transform="matrix(0.999 -4.383783e-02 4.383783e-02 0.999 -19.0704 36.909)" width="51.3" height="20.5"/>
<rect x="811.6" y="491.7" transform="matrix(0.3552 -0.9348 0.9348 0.3552 46.2882 1101.8391)" width="20.5" height="51.3"/>
<rect x="788.4" y="548.1" transform="matrix(0.4988 -0.8667 0.8667 0.4988 -97.0233 979.7828)" width="20.5" height="51.3"/>
<rect x="750" y="594.2" transform="matrix(0.7035 -0.7107 0.7107 0.7035 -215.1323 724.1021)" width="20.5" height="51.3"/>
<g>
	<path d="M236.2,737.2c18.4,0,32.4,2.7,42.2,8.1c9.8,5.4,14.7,13.9,14.7,25.3c0,7.1-2,12.9-5.9,17.4c-3.9,4.4-9.6,7.9-17,10.5
		c2.5,2.5,5.1,5.4,7.8,8.7c2.7,3.3,5.4,6.7,8,10.3s5.2,7.3,7.7,11.1c2.5,3.9,4.8,7.6,6.9,11.4h-30.8c-2.2-3.3-4.5-6.7-6.8-10.1
		c-2.3-3.4-4.7-6.7-7.1-10c-2.4-3.2-4.8-6.3-7.2-9.2s-4.7-5.5-7.1-7.8H228V840h-27.6V739.9c6-1,12.2-1.7,18.6-2.1
		C225.4,737.4,231.1,737.2,236.2,737.2z M237.8,756.7c-2,0-3.8,0.1-5.4,0.1c-1.6,0.1-3.1,0.2-4.5,0.3v27.6h7.8
		c10.4,0,17.8-1.1,22.3-3.2c4.5-2.1,6.7-5.8,6.7-11c0-5-2.3-8.5-6.8-10.6C253.3,757.8,246.6,756.7,237.8,756.7z"/>
	<path d="M318.2,840V738.4h82.7v19.2h-55.1v19.9h48.9v18.8h-48.9v24.5h378.4V840H318.2z"/>
	<path d="M425.2,840V738.4h82.7v19.2h-55.1v19.9h48.9v18.8h-48.9v24.5H512V840H425.2z"/>
	<path d="M532.2,840V738.4h82.7v19.2h-55.1v19.9h48.9v18.8h-48.9v24.5H619V840H532.2z"/>
	<path d="M639.3,840V738.4H722v19.2h-55.1v19.9h48.9v18.8h-48.9v24.5H726V840H639.3z"/>
</g>
<g class="st1">
	<path d="M294.4,519.8V393.5h67.8v23.9h-45.2v24.8h40.1v23.3h-40.1v30.4h48.5v23.9H294.4z"/>
</g>
</svg>
